# xmcd
#
# Track frame offsets: 
#        150
#        14288
#        28769
#        42558
#        55840
#        68247
#        81673
#        95096
#        108342
#        123202
#        137711
#        151073
#        165082
#        177921
#        193036
#        207988
#        221379
#        234409
#        247742
#        260967
#        273734
#        287807
#        300954
#        313542
#
# Disc length: 4359 seconds
#
# Revision: 0
# Processed by: cddbd v1.5.2PL0 Copyright (c) Steve Scherf et al.
# Submitted via: ExactAudioCopy v0.95b4
#
DISCID=54110518
DTITLE=Bessie Smith - The Essence Of Bessie Smith CD2
DYEAR=1900
DGENRE=Blues
TTITLE0=Young Woman's Blues
TTITLE1=Gin House Blues
TTITLE2=Golden Rules
TTITLE3=Hard Driving Papa
TTITLE4=What's The Matter Now?
TTITLE5=A Good Man Is Hard To Find
TTITLE6=Alexander's Ragtime Band
TTITLE7=After You've Gone
TTITLE8=Back Water Blues
TTITLE9=Honey Man Blues
TTITLE10=Lock And Key
TTITLE11=Muddy Water (A Mississippi Moan)
TTITLE12=Preachin' The Blues
TTITLE13=Send Me To The 'Lectric Chair
TTITLE14=There'll Be A Hot Time In The Old Town Tonight
TTITLE15=Dyin' By The Hour
TTITLE16=Foolish Man Blues
TTITLE17=I'd Rather Be Dead And Buried In My Grave
TTITLE18=Kitchen Man
TTITLE19=Me And My Gin
TTITLE20=Black Mountain Blues
TTITLE21=On Revival Day (A Rhythmic Spiritual)
TTITLE22=I Need A Little Sugar In My Bowl
TTITLE23=Nobody Knows You When You're Down And Out
EXTD=
EXTT0=
EXTT1=
EXTT2=
EXTT3=
EXTT4=
EXTT5=
EXTT6=
EXTT7=
EXTT8=
EXTT9=
EXTT10=
EXTT11=
EXTT12=
EXTT13=
EXTT14=
EXTT15=
EXTT16=
EXTT17=
EXTT18=
EXTT19=
EXTT20=
EXTT21=
EXTT22=
EXTT23=
PLAYORDER=
